M48
; DRILL file {KiCad 6.0.2+dfsg-1} date Mon 20 Jun 2022 10:27:48 PM EDT
; FORMAT={-:-/ absolute / inch / decimal}
; #@! TF.CreationDate,2022-06-20T22:27:48-04:00
; #@! TF.GenerationSoftware,Kicad,Pcbnew,6.0.2+dfsg-1
; #@! TF.FileFunction,Plated,1,2,PTH
FMAT,2
INCH
; #@! TA.AperFunction,Plated,PTH,ViaDrill
T1C0.0157
; #@! TA.AperFunction,Plated,PTH,ComponentDrill
T2C0.0197
; #@! TA.AperFunction,Plated,PTH,ComponentDrill
T3C0.0354
; #@! TA.AperFunction,Plated,PTH,ComponentDrill
T4C0.0512
; #@! TA.AperFunction,Plated,PTH,ComponentDrill
T5C0.1063
%
G90
G05
T1
X2.438Y-3.53
X2.438Y-4.266
X2.518Y-3.53
X2.518Y-4.266
X2.596Y-3.53
X2.598Y-4.266
X2.652Y-3.036
X2.658Y-4.754
X2.664Y-4.434
X2.678Y-3.53
X2.678Y-4.266
X2.68Y-3.09
X2.68Y-4.7
X2.694Y-3.354
X2.754Y-3.53
X2.754Y-4.266
X2.774Y-3.354
X2.784Y-4.434
X2.792Y-3.038
X2.798Y-4.756
X2.832Y-3.53
X2.832Y-4.266
X2.894Y-3.354
X2.904Y-4.434
X2.912Y-3.53
X2.912Y-4.268
X2.928Y-3.038
X2.936Y-4.754
X2.99Y-3.53
X2.99Y-3.592
X2.99Y-4.184
X2.99Y-4.266
X3.014Y-3.354
X3.024Y-4.434
X3.046Y-3.26
X3.066Y-3.038
X3.072Y-4.754
X3.134Y-3.356
X3.136Y-4.422
X3.224Y-3.622
X3.232Y-3.454
X3.232Y-3.454
X3.248Y-4.394
X3.263Y-3.621
X3.29Y-4.46
X3.312Y-4.754
X3.314Y-3.038
X3.324Y-4.318
X3.328Y-3.55
X3.332Y-4.18
X3.45Y-4.754
X3.452Y-3.038
X3.588Y-4.754
X3.59Y-3.038
X3.726Y-4.754
X3.728Y-3.038
X3.822Y-3.406
X3.822Y-3.488
X3.822Y-4.132
X3.822Y-4.25
X3.822Y-4.37
X3.868Y-3.58
X3.965Y-3.625
X3.982Y-4.166
X3.982Y-4.306
X4.005Y-3.625
X4.03Y-4.098
X4.068Y-3.58
T2
X3.1123Y-4.61
X3.1143Y-3.188
X3.1356Y-4.5536
X3.1356Y-4.6664
X3.1376Y-3.1316
X3.1376Y-3.2444
X3.192Y-4.5303
X3.192Y-4.6897
X3.194Y-3.1083
X3.194Y-3.2677
X3.2484Y-4.5536
X3.2484Y-4.6664
X3.2504Y-3.1316
X3.2504Y-3.2444
X3.2717Y-4.61
X3.2737Y-3.188
T3
X2.342Y-3.4411
X2.3436Y-4.3578
X2.4273Y-3.3919
X2.4289Y-4.407
X2.4955Y-3.3525
X2.497Y-4.4464
X2.5807Y-3.3033
X2.5823Y-4.4956
X3.1172Y-3.7037
X3.1172Y-4.0137
X3.2156Y-3.7037
X3.2156Y-4.0137
X3.2944Y-3.7037
X3.2944Y-4.0137
X3.3928Y-3.7037
X3.3928Y-4.0137
X3.8013Y-4.4956
X3.8017Y-3.3004
X3.8472Y-3.7037
X3.8472Y-4.0187
X3.8865Y-4.4464
X3.887Y-3.3496
X3.9456Y-3.7037
X3.9456Y-4.0187
X3.9547Y-4.407
X3.9551Y-3.389
X4.0244Y-3.7037
X4.0244Y-4.0187
X4.04Y-4.3578
X4.0404Y-3.4382
X4.1228Y-3.7037
X4.1228Y-4.0187
T5
X3.192Y-4.61
X3.194Y-3.188
T4
G00X2.2354Y-3.4981
M15
G01X2.2157Y-3.464
M16
G05
G00X2.2173Y-4.3349
M15
G01X2.237Y-4.3008
M16
G05
G00X2.3502Y-3.2191
M15
G01X2.3843Y-3.1994
M16
G05
G00X2.3859Y-4.5995
M15
G01X2.3518Y-4.5798
M16
G05
G00X2.6637Y-3.2054
M15
G01X2.6834Y-3.2395
M16
G05
G00X2.685Y-4.5594
M15
G01X2.6653Y-4.5935
M16
G05
G00X2.9963Y-3.747
M15
G01X2.9963Y-3.7077
M16
G05
G00X2.9963Y-4.057
M15
G01X2.9963Y-4.0177
M16
G05
G00X3.5137Y-3.7077
M15
G01X3.5137Y-3.747
M16
G05
G00X3.5137Y-4.0177
M15
G01X3.5137Y-4.057
M16
G05
G00X3.7183Y-4.5935
M15
G01X3.6986Y-4.5594
M16
G05
G00X3.699Y-3.2366
M15
G01X3.7187Y-3.2025
M16
G05
G00X3.7263Y-3.747
M15
G01X3.7263Y-3.7077
M16
G05
G00X3.7263Y-4.062
M15
G01X3.7263Y-4.0227
M16
G05
G00X4.0318Y-4.5798
M15
G01X3.9977Y-4.5995
M16
G05
G00X3.9981Y-3.1965
M15
G01X4.0322Y-3.2162
M16
G05
G00X4.1466Y-4.3008
M15
G01X4.1663Y-4.3349
M16
G05
G00X4.1667Y-3.4611
M15
G01X4.147Y-3.4952
M16
G05
G00X4.2437Y-3.7077
M15
G01X4.2437Y-3.747
M16
G05
G00X4.2437Y-4.0227
M15
G01X4.2437Y-4.062
M16
G05
T0
M30
