G04 #@! TF.GenerationSoftware,KiCad,Pcbnew,6.0.2+dfsg-1*
G04 #@! TF.CreationDate,2022-06-20T22:27:53-04:00*
G04 #@! TF.ProjectId,RPI4_USB_WigleBottle_v2,52504934-5f55-4534-925f-5769676c6542,rev?*
G04 #@! TF.SameCoordinates,Original*
G04 #@! TF.FileFunction,Soldermask,Top*
G04 #@! TF.FilePolarity,Negative*
%FSLAX46Y46*%
G04 Gerber Fmt 4.6, Leading zero omitted, Abs format (unit mm)*
G04 Created by KiCad (PCBNEW 6.0.2+dfsg-1) date 2022-06-20 22:27:53*
%MOMM*%
%LPD*%
G01*
G04 APERTURE LIST*
G04 Aperture macros list*
%AMRoundRect*
0 Rectangle with rounded corners*
0 $1 Rounding radius*
0 $2 $3 $4 $5 $6 $7 $8 $9 X,Y pos of 4 corners*
0 Add a 4 corners polygon primitive as box body*
4,1,4,$2,$3,$4,$5,$6,$7,$8,$9,$2,$3,0*
0 Add four circle primitives for the rounded corners*
1,1,$1+$1,$2,$3*
1,1,$1+$1,$4,$5*
1,1,$1+$1,$6,$7*
1,1,$1+$1,$8,$9*
0 Add four rect primitives between the rounded corners*
20,1,$1+$1,$2,$3,$4,$5,0*
20,1,$1+$1,$4,$5,$6,$7,0*
20,1,$1+$1,$6,$7,$8,$9,0*
20,1,$1+$1,$8,$9,$2,$3,0*%
%AMHorizOval*
0 Thick line with rounded ends*
0 $1 width*
0 $2 $3 position (X,Y) of the first rounded end (center of the circle)*
0 $4 $5 position (X,Y) of the second rounded end (center of the circle)*
0 Add line between two ends*
20,1,$1,$2,$3,$4,$5,0*
0 Add two circle primitives to create the rounded ends*
1,1,$1,$2,$3*
1,1,$1,$4,$5*%
%AMRotRect*
0 Rectangle, with rotation*
0 The origin of the aperture is its center*
0 $1 length*
0 $2 width*
0 $3 Rotation angle, in degrees counterclockwise*
0 Add horizontal line*
21,1,$1,$2,0,0,$3*%
G04 Aperture macros list end*
%ADD10RoundRect,0.250000X0.375000X0.625000X-0.375000X0.625000X-0.375000X-0.625000X0.375000X-0.625000X0*%
%ADD11RoundRect,0.250000X-0.375000X-0.625000X0.375000X-0.625000X0.375000X0.625000X-0.375000X0.625000X0*%
%ADD12RotRect,1.300000X1.300000X30.000000*%
%ADD13C,1.300000*%
%ADD14HorizOval,1.900000X-0.250000X0.433013X0.250000X-0.433013X0*%
%ADD15HorizOval,1.900000X0.433013X0.250000X-0.433013X-0.250000X0*%
%ADD16RotRect,1.300000X1.300000X210.000000*%
%ADD17HorizOval,1.900000X-0.433013X-0.250000X0.433013X0.250000X0*%
%ADD18O,1.900000X2.900000*%
%ADD19R,1.300000X1.300000*%
%ADD20RotRect,1.300000X1.300000X150.000000*%
%ADD21HorizOval,1.900000X-0.433013X0.250000X0.433013X-0.250000X0*%
%ADD22HorizOval,1.900000X-0.250000X-0.433013X0.250000X0.433013X0*%
%ADD23HorizOval,1.900000X0.250000X0.433013X-0.250000X-0.433013X0*%
%ADD24RotRect,1.300000X1.300000X330.000000*%
%ADD25C,0.800000*%
%ADD26C,5.400000*%
%ADD27RoundRect,0.250000X-0.325000X-0.650000X0.325000X-0.650000X0.325000X0.650000X-0.325000X0.650000X0*%
%ADD28RoundRect,0.250000X0.325000X0.650000X-0.325000X0.650000X-0.325000X-0.650000X0.325000X-0.650000X0*%
G04 APERTURE END LIST*
D10*
X73660000Y-81026000D03*
X70860000Y-81026000D03*
X73914000Y-116840000D03*
X71114000Y-116840000D03*
D11*
X88386000Y-81026000D03*
X91186000Y-81026000D03*
X88392000Y-117094000D03*
X91192000Y-117094000D03*
D12*
X59487711Y-87403651D03*
D13*
X61652775Y-86153651D03*
X63384825Y-85153651D03*
X65549889Y-83903651D03*
D14*
X67908587Y-81849036D03*
D15*
X60128800Y-81514049D03*
D14*
X56529013Y-88419036D03*
D16*
X102615089Y-110687730D03*
D13*
X100450025Y-111937730D03*
X98717975Y-112937730D03*
X96552911Y-114187730D03*
D17*
X101974000Y-116577332D03*
D14*
X94194213Y-116242345D03*
X105573787Y-109672345D03*
D10*
X74930000Y-83566000D03*
X72130000Y-83566000D03*
X75184000Y-114300000D03*
X72384000Y-114300000D03*
D11*
X87116000Y-83566000D03*
X89916000Y-83566000D03*
X87122000Y-114554000D03*
X89922000Y-114554000D03*
D18*
X89247000Y-102549000D03*
X76107000Y-102549000D03*
D13*
X79177000Y-101949000D03*
X81677000Y-101949000D03*
X83677000Y-101949000D03*
D19*
X86177000Y-101949000D03*
X86177000Y-94075000D03*
D13*
X83677000Y-94075000D03*
X81677000Y-94075000D03*
X79177000Y-94075000D03*
D18*
X89247000Y-94675000D03*
X76107000Y-94675000D03*
D19*
X104719000Y-102076000D03*
D13*
X102219000Y-102076000D03*
X100219000Y-102076000D03*
X97719000Y-102076000D03*
D18*
X107789000Y-102676000D03*
X94649000Y-102676000D03*
D19*
X104719000Y-94075000D03*
D13*
X102219000Y-94075000D03*
X100219000Y-94075000D03*
X97719000Y-94075000D03*
D18*
X107789000Y-94675000D03*
X94649000Y-94675000D03*
D20*
X65589989Y-114187730D03*
D13*
X63424925Y-112937730D03*
X61692875Y-111937730D03*
X59527811Y-110687730D03*
D21*
X60168900Y-116577332D03*
D22*
X67948687Y-116242345D03*
D23*
X56569113Y-109672345D03*
D24*
X96563611Y-83830671D03*
D13*
X98728675Y-85080671D03*
X100460725Y-86080671D03*
X102625789Y-87330671D03*
D23*
X94204913Y-81776056D03*
D22*
X105584487Y-88346056D03*
D21*
X101984700Y-81441069D03*
D25*
X82559491Y-79543309D03*
X82559491Y-82407091D03*
X83152600Y-80975200D03*
X81127600Y-83000200D03*
X79102600Y-80975200D03*
X79695709Y-79543309D03*
D26*
X81127600Y-80975200D03*
D25*
X79695709Y-82407091D03*
X81127600Y-78950200D03*
X79644909Y-118525891D03*
X81076800Y-119119000D03*
X79051800Y-117094000D03*
X79644909Y-115662109D03*
X83101800Y-117094000D03*
X82508691Y-115662109D03*
D26*
X81076800Y-117094000D03*
D25*
X81076800Y-115069000D03*
X82508691Y-118525891D03*
D27*
X69440000Y-78486000D03*
X72390000Y-78486000D03*
X69567000Y-119380000D03*
X72517000Y-119380000D03*
D28*
X92710000Y-78486000D03*
X89760000Y-78486000D03*
X92612000Y-119634000D03*
X89662000Y-119634000D03*
M02*
